<svg width="24" height="24" viewBox="0 0 48 48" fill="none" xmlns="http://www.w3.org/2000/svg">
<g clip-path="url(#clip0_2_8896)">
<path d="M24 0C19.2533 0 14.6131 1.40758 10.6663 4.04473C6.71954 6.68188 3.64341 10.4302 1.8269 14.8156C0.0103989 19.201 -0.464881 24.0266 0.461164 28.6822C1.38721 33.3377 3.67299 37.6141 7.02945 40.9706C10.3859 44.327 14.6623 46.6128 19.3178 47.5388C23.9734 48.4649 28.799 47.9896 33.1844 46.1731C37.5698 44.3566 41.3181 41.2805 43.9553 37.3337C46.5924 33.3869 48 28.7468 48 24C47.9931 17.6369 45.4624 11.5364 40.963 7.03704C36.4636 2.53766 30.3631 0.00688216 24 0ZM24 44C20.0444 44 16.1776 42.827 12.8886 40.6294C9.59962 38.4318 7.03617 35.3082 5.52242 31.6537C4.00867 27.9992 3.6126 23.9778 4.38431 20.0982C5.15601 16.2186 7.06082 12.6549 9.85787 9.85787C12.6549 7.06081 16.2186 5.156 20.0982 4.38429C23.9778 3.61259 27.9992 4.00866 31.6537 5.52241C35.3082 7.03616 38.4318 9.59961 40.6294 12.8886C42.827 16.1776 44 20.0444 44 24C43.9942 29.3025 41.8852 34.3862 38.1357 38.1357C34.3862 41.8852 29.3026 43.9942 24 44Z" fill="#666666"/>
<path d="M24 20H22C21.4696 20 20.9609 20.2107 20.5858 20.5858C20.2107 20.9609 20 21.4696 20 22C20 22.5304 20.2107 23.0391 20.5858 23.4142C20.9609 23.7893 21.4696 24 22 24H24V36C24 36.5304 24.2107 37.0391 24.5858 37.4142C24.9609 37.7893 25.4696 38 26 38C26.5304 38 27.0391 37.7893 27.4142 37.4142C27.7893 37.0391 28 36.5304 28 36V24C28 22.9391 27.5786 21.9217 26.8284 21.1716C26.0783 20.4214 25.0609 20 24 20Z" fill="#666666"/>
<path d="M24 16C25.6569 16 27 14.6569 27 13C27 11.3431 25.6569 10 24 10C22.3431 10 21 11.3431 21 13C21 14.6569 22.3431 16 24 16Z" fill="#666666"/>
</g>
<defs>
<clipPath id="clip0_2_8896">
<rect width="48" height="48" fill="white"/>
</clipPath>
</defs>
</svg>
