<svg width="48" height="48" viewBox="0 0 48 48" fill="none" xmlns="http://www.w3.org/2000/svg">
<g clip-path="url(#clip0_2_8886)">
<path d="M24 0C19.2533 0 14.6131 1.40758 10.6663 4.04473C6.71954 6.68188 3.64341 10.4302 1.8269 14.8156C0.0103989 19.201 -0.464881 24.0266 0.461164 28.6822C1.38721 33.3377 3.67299 37.6141 7.02945 40.9706C10.3859 44.327 14.6623 46.6128 19.3178 47.5388C23.9734 48.4649 28.799 47.9896 33.1844 46.1731C37.5698 44.3566 41.3181 41.2805 43.9553 37.3337C46.5924 33.3869 48 28.7468 48 24C47.9931 17.6369 45.4624 11.5364 40.963 7.03704C36.4636 2.53766 30.3631 0.00688216 24 0ZM24 44C20.0444 44 16.1776 42.827 12.8886 40.6294C9.59962 38.4318 7.03617 35.3082 5.52242 31.6537C4.00867 27.9992 3.6126 23.9778 4.38431 20.0982C5.15601 16.2186 7.06082 12.6549 9.85787 9.85787C12.6549 7.06081 16.2186 5.156 20.0982 4.38429C23.9778 3.61259 27.9992 4.00866 31.6537 5.52241C35.3082 7.03616 38.4318 9.59961 40.6294 12.8886C42.827 16.1776 44 20.0444 44 24C43.9942 29.3025 41.8852 34.3862 38.1357 38.1357C34.3862 41.8852 29.3026 43.9942 24 44ZM34 24C34 24.5304 33.7893 25.0391 33.4142 25.4142C33.0392 25.7893 32.5304 26 32 26H26V32C26 32.5304 25.7893 33.0391 25.4142 33.4142C25.0392 33.7893 24.5304 34 24 34C23.4696 34 22.9609 33.7893 22.5858 33.4142C22.2107 33.0391 22 32.5304 22 32V26H16C15.4696 26 14.9609 25.7893 14.5858 25.4142C14.2107 25.0391 14 24.5304 14 24C14 23.4696 14.2107 22.9609 14.5858 22.5858C14.9609 22.2107 15.4696 22 16 22H22V16C22 15.4696 22.2107 14.9609 22.5858 14.5858C22.9609 14.2107 23.4696 14 24 14C24.5304 14 25.0392 14.2107 25.4142 14.5858C25.7893 14.9609 26 15.4696 26 16V22H32C32.5304 22 33.0392 22.2107 33.4142 22.5858C33.7893 22.9609 34 23.4696 34 24Z" fill="#666666"/>
</g>
<defs>
<clipPath id="clip0_2_8886">
<rect width="48" height="48" fill="white"/>
</clipPath>
</defs>
</svg>
