<svg width="48" height="48" viewBox="0 0 48 48" fill="none" xmlns="http://www.w3.org/2000/svg">
<g clip-path="url(#clip0_2_9825)">
<path d="M34.0001 48C34.2633 48.0015 34.5243 47.9511 34.7679 47.8515C35.0116 47.752 35.2332 47.6054 35.4201 47.42C35.6076 47.2341 35.7564 47.0129 35.8579 46.7692C35.9594 46.5254 36.0117 46.264 36.0117 46C36.0117 45.736 35.9594 45.4746 35.8579 45.2309C35.7564 44.9871 35.6076 44.7659 35.4201 44.58L19.0801 28.24C17.9565 27.115 17.3254 25.59 17.3254 24C17.3254 22.41 17.9565 20.885 19.0801 19.76L35.4201 3.42C35.7967 3.0434 36.0083 2.53261 36.0083 2C36.0083 1.4674 35.7967 0.956612 35.4201 0.580005C35.0435 0.203397 34.5327 -0.00817871 34.0001 -0.00817871C33.4675 -0.00817871 32.9567 0.203397 32.5801 0.580005L16.2401 16.92C15.3089 17.8489 14.57 18.9524 14.0659 20.1673C13.5617 21.3822 13.3022 22.6847 13.3022 24C13.3022 25.3153 13.5617 26.6178 14.0659 27.8327C14.57 29.0476 15.3089 30.1511 16.2401 31.08L32.5801 47.42C32.767 47.6054 32.9886 47.752 33.2323 47.8515C33.476 47.9511 33.7369 48.0015 34.0001 48Z" fill="#666666"/>
</g>
<defs>
<clipPath id="clip0_2_9825">
<rect width="48" height="48" fill="white" transform="matrix(-1 0 0 1 48 0)"/>
</clipPath>
</defs>
</svg>
