<svg width="48" height="48" viewBox="0 0 48 48" fill="none" xmlns="http://www.w3.org/2000/svg">
<g clip-path="url(#clip0_2_9827)">
<path d="M13.9999 48C13.7367 48.0015 13.4757 47.9511 13.2321 47.8515C12.9884 47.752 12.7668 47.6054 12.5799 47.42C12.3924 47.2341 12.2436 47.0129 12.1421 46.7692C12.0406 46.5254 11.9883 46.264 11.9883 46C11.9883 45.736 12.0406 45.4746 12.1421 45.2309C12.2436 44.9871 12.3924 44.7659 12.5799 44.58L28.9199 28.24C30.0435 27.115 30.6746 25.59 30.6746 24C30.6746 22.41 30.0435 20.885 28.9199 19.76L12.5799 3.42C12.2033 3.0434 11.9917 2.53261 11.9917 2C11.9917 1.4674 12.2033 0.956612 12.5799 0.580005C12.9565 0.203397 13.4673 -0.00817871 13.9999 -0.00817871C14.5325 -0.00817871 15.0433 0.203397 15.4199 0.580005L31.7599 16.92C32.6911 17.8489 33.43 18.9524 33.9341 20.1673C34.4383 21.3822 34.6978 22.6847 34.6978 24C34.6978 25.3153 34.4383 26.6178 33.9341 27.8327C33.43 29.0476 32.6911 30.1511 31.7599 31.08L15.4199 47.42C15.233 47.6054 15.0114 47.752 14.7677 47.8515C14.524 47.9511 14.2631 48.0015 13.9999 48Z" fill="#666666"/>
</g>
<defs>
<clipPath id="clip0_2_9827">
<rect width="48" height="48" fill="white"/>
</clipPath>
</defs>
</svg>
