<svg width="24" height="24" viewBox="0 0 48 48" fill="none" xmlns="http://www.w3.org/2000/svg">
<g clip-path="url(#clip0_2_8888)">
<path d="M45.706 2.296C44.3463 0.938393 42.5035 0.175873 40.582 0.175873C38.6606 0.175873 36.8177 0.938393 35.458 2.296L2.93003 34.824C1.99853 35.7503 1.25995 36.852 0.757026 38.0656C0.254098 39.2791 -0.00319595 40.5804 2.99624e-05 41.894V46C2.99624e-05 46.5304 0.210744 47.0391 0.585816 47.4142C0.960889 47.7893 1.4696 48 2.00003 48H6.10603C7.41955 48.0037 8.72077 47.7468 9.93434 47.2442C11.1479 46.7416 12.2497 46.0033 13.176 45.072L45.706 12.542C47.063 11.1824 47.8252 9.33993 47.8252 7.419C47.8252 5.49807 47.063 3.65561 45.706 2.296ZM10.348 42.244C9.22004 43.3645 7.69596 43.9954 6.10603 44H4.00003V41.894C3.99801 41.1058 4.15234 40.325 4.4541 39.5969C4.75587 38.8688 5.19906 38.2077 5.75803 37.652L30.444 12.966L35.044 17.566L10.348 42.244ZM42.876 9.714L37.864 14.728L33.264 10.138L38.278 5.124C38.5801 4.82262 38.9385 4.58367 39.3329 4.42082C39.7273 4.25796 40.1499 4.17438 40.5766 4.17484C41.0033 4.17531 41.4257 4.25981 41.8197 4.42352C42.2137 4.58724 42.5716 4.82696 42.873 5.129C43.1744 5.43104 43.4134 5.78948 43.5762 6.18387C43.7391 6.57825 43.8227 7.00085 43.8222 7.42753C43.8217 7.85422 43.7372 8.27664 43.5735 8.67066C43.4098 9.06469 43.1701 9.42262 42.868 9.724L42.876 9.714Z" fill="#666666"/>
</g>
<defs>
<clipPath id="clip0_2_8888">
<rect width="48" height="48" fill="white"/>
</clipPath>
</defs>
</svg>
