<svg width="24" height="24" viewBox="0 0 48 48" fill="none" xmlns="http://www.w3.org/2000/svg">
<g clip-path="url(#clip0_2_8882)">
<path d="M42 8H35.8C35.3358 5.74283 34.1076 3.71469 32.3225 2.25744C30.5374 0.80018 28.3044 0.00290905 26 0L22 0C19.6956 0.00290905 17.4626 0.80018 15.6775 2.25744C13.8924 3.71469 12.6642 5.74283 12.2 8H6C5.46957 8 4.96086 8.21071 4.58579 8.58579C4.21071 8.96086 4 9.46957 4 10C4 10.5304 4.21071 11.0391 4.58579 11.4142C4.96086 11.7893 5.46957 12 6 12H8V38C8.00318 40.6512 9.05776 43.1929 10.9324 45.0676C12.8071 46.9422 15.3488 47.9968 18 48H30C32.6512 47.9968 35.1929 46.9422 37.0676 45.0676C38.9422 43.1929 39.9968 40.6512 40 38V12H42C42.5304 12 43.0391 11.7893 43.4142 11.4142C43.7893 11.0391 44 10.5304 44 10C44 9.46957 43.7893 8.96086 43.4142 8.58579C43.0391 8.21071 42.5304 8 42 8ZM22 4H26C27.2405 4.00151 28.4503 4.38675 29.4632 5.10289C30.4762 5.81902 31.2428 6.83098 31.658 8H16.342C16.7572 6.83098 17.5238 5.81902 18.5368 5.10289C19.5497 4.38675 20.7595 4.00151 22 4ZM36 38C36 39.5913 35.3679 41.1174 34.2426 42.2426C33.1174 43.3679 31.5913 44 30 44H18C16.4087 44 14.8826 43.3679 13.7574 42.2426C12.6321 41.1174 12 39.5913 12 38V12H36V38Z" fill="#666666"/>
<path d="M20 36C20.5304 36 21.0391 35.7893 21.4142 35.4142C21.7893 35.0391 22 34.5304 22 34V22C22 21.4696 21.7893 20.9609 21.4142 20.5858C21.0391 20.2107 20.5304 20 20 20C19.4696 20 18.9609 20.2107 18.5858 20.5858C18.2107 20.9609 18 21.4696 18 22V34C18 34.5304 18.2107 35.0391 18.5858 35.4142C18.9609 35.7893 19.4696 36 20 36Z" fill="#666666"/>
<path d="M28 36C28.5304 36 29.0391 35.7893 29.4142 35.4142C29.7893 35.0391 30 34.5304 30 34V22C30 21.4696 29.7893 20.9609 29.4142 20.5858C29.0391 20.2107 28.5304 20 28 20C27.4696 20 26.9609 20.2107 26.5858 20.5858C26.2107 20.9609 26 21.4696 26 22V34C26 34.5304 26.2107 35.0391 26.5858 35.4142C26.9609 35.7893 27.4696 36 28 36Z" fill="#666666"/>
</g>
<defs>
<clipPath id="clip0_2_8882">
<rect width="48" height="48" fill="white"/>
</clipPath>
</defs>
</svg>
