<svg width="24" height="24" viewBox="0 0 48 48" fill="none" xmlns="http://www.w3.org/2000/svg">
<g clip-path="url(#clip0_2_8728)">
<path d="M38 4H36V2C36 1.46957 35.7893 0.960859 35.4142 0.585786C35.0391 0.210714 34.5304 0 34 0C33.4696 0 32.9609 0.210714 32.5858 0.585786C32.2107 0.960859 32 1.46957 32 2V4H16V2C16 1.46957 15.7893 0.960859 15.4142 0.585786C15.0391 0.210714 14.5304 0 14 0C13.4696 0 12.9609 0.210714 12.5858 0.585786C12.2107 0.960859 12 1.46957 12 2V4H10C7.34881 4.00318 4.80712 5.05776 2.93244 6.93244C1.05776 8.80712 0.00317572 11.3488 0 14L0 38C0.00317572 40.6512 1.05776 43.1929 2.93244 45.0676C4.80712 46.9422 7.34881 47.9968 10 48H38C40.6512 47.9968 43.1929 46.9422 45.0676 45.0676C46.9422 43.1929 47.9968 40.6512 48 38V14C47.9968 11.3488 46.9422 8.80712 45.0676 6.93244C43.1929 5.05776 40.6512 4.00318 38 4ZM4 14C4 12.4087 4.63214 10.8826 5.75736 9.75736C6.88258 8.63214 8.4087 8 10 8H38C39.5913 8 41.1174 8.63214 42.2426 9.75736C43.3679 10.8826 44 12.4087 44 14V16H4V14ZM38 44H10C8.4087 44 6.88258 43.3679 5.75736 42.2426C4.63214 41.1174 4 39.5913 4 38V20H44V38C44 39.5913 43.3679 41.1174 42.2426 42.2426C41.1174 43.3679 39.5913 44 38 44Z" fill="#666666"/>
<path d="M24 33C25.6569 33 27 31.6569 27 30C27 28.3431 25.6569 27 24 27C22.3431 27 21 28.3431 21 30C21 31.6569 22.3431 33 24 33Z" fill="#666666"/>
<path d="M14 33C15.6569 33 17 31.6569 17 30C17 28.3431 15.6569 27 14 27C12.3431 27 11 28.3431 11 30C11 31.6569 12.3431 33 14 33Z" fill="#666666"/>
<path d="M34 33C35.6569 33 37 31.6569 37 30C37 28.3431 35.6569 27 34 27C32.3431 27 31 28.3431 31 30C31 31.6569 32.3431 33 34 33Z" fill="#666666"/>
</g>
<defs>
<clipPath id="clip0_2_8728">
<rect width="48" height="48" fill="white"/>
</clipPath>
</defs>
</svg>
