<svg width="24" height="24" viewBox="0 0 48 48" fill="none" xmlns="http://www.w3.org/2000/svg">
<g clip-path="url(#clip0_2_8554)">
<path d="M42 48H38V37.914C37.9984 36.346 37.3748 34.8427 36.2661 33.7339C35.1573 32.6252 33.654 32.0016 32.086 32H15.914C14.346 32.0016 12.8427 32.6252 11.7339 33.7339C10.6252 34.8427 10.0016 36.346 10 37.914V48H6V37.914C6.00318 35.2856 7.0487 32.7658 8.90725 30.9073C10.7658 29.0487 13.2856 28.0032 15.914 28H32.086C34.7144 28.0032 37.2342 29.0487 39.0928 30.9073C40.9513 32.7658 41.9968 35.2856 42 37.914V48Z" fill="#666666"/>
<path d="M24 23.9999C21.6266 23.9999 19.3066 23.2962 17.3332 21.9776C15.3598 20.659 13.8217 18.7849 12.9135 16.5921C12.0052 14.3994 11.7676 11.9866 12.2306 9.65886C12.6936 7.33109 13.8365 5.19289 15.5147 3.51466C17.193 1.83643 19.3312 0.693544 21.6589 0.230521C23.9867 -0.232502 26.3995 0.0051384 28.5922 0.91339C30.7849 1.82164 32.6591 3.35971 33.9776 5.3331C35.2962 7.30649 36 9.62657 36 11.9999C35.9968 15.1816 34.7315 18.232 32.4818 20.4817C30.232 22.7315 27.1816 23.9968 24 23.9999ZM24 3.99994C22.4178 3.99994 20.871 4.46914 19.5554 5.34819C18.2399 6.22724 17.2145 7.47667 16.609 8.93848C16.0035 10.4003 15.845 12.0088 16.1537 13.5607C16.4624 15.1125 17.2243 16.538 18.3432 17.6568C19.462 18.7756 20.8874 19.5375 22.4393 19.8462C23.9911 20.1549 25.5997 19.9965 27.0615 19.391C28.5233 18.7855 29.7727 17.7601 30.6518 16.4445C31.5308 15.1289 32 13.5822 32 11.9999C32 9.87821 31.1572 7.84338 29.6569 6.34309C28.1566 4.8428 26.1217 3.99994 24 3.99994Z" fill="#666666"/>
</g>
<defs>
<clipPath id="clip0_2_8554">
<rect width="48" height="48" fill="white"/>
</clipPath>
</defs>
</svg>
